# xmcd
#
# Track frame offsets:
# 150
# 19314
# 36941
# 59383
# 75210
# 85702
# 98562
# 117756
# 138591
# 160805
# 182122
# 204722
# 226181
# 241381
# 260643
#
# Disc length: 3771 seconds
#
#
# Revision: 4
# Processed by: cddbd v1.5.1PL0 Copyright (c) Steve Scherf et al.
# Submitted via: FreeRIP 2.90 
#
DISCID=be0eb90f
DTITLE=Fundo de Quintal - Ao Vivo - Simplicidade
DYEAR=2000
DGENRE=Samba
TTITLE0=Doce refugio/Caciqueando
TTITLE1=Chega pra sambar/Castelo de cera
TTITLE2=Menina da colina/Nosso Grito
TTITLE3=O Show tem que continuar
TTITLE4=Chua-Chua/Fui passear no norte/ Moema morenou
TTITLE5=Bahiana serrana/Serei teu io io/Vem menina moça
TTITLE6=Realidade/ Parabens pra você
TTITLE7=Rosalina/Vai la vai la
TTITLE8=Amizade/lucidez
TTITLE9=So pra contrariar/ O Irene
TTITLE10=Verdadeira Chama/Levada desse tanta
TTITLE11=Sem Segredo/Amor dos deuses
TTITLE12=Cantei só pra distrair/Cade ioio
TTITLE13=Merece respeito/Miudinho meu bem, miudinho
TTITLE14=A Batucada dos nossos tantas/ Do fundo do nosso quintal
EXTD=YEAR: 2000
EXTT0=
EXTT1=
EXTT2=
EXTT3=
EXTT4=
EXTT5=
EXTT6=
EXTT7=
EXTT8=
EXTT9=
EXTT10=
EXTT11=
EXTT12=
EXTT13=
EXTT14=
PLAYORDER=
